FFmpeg version SVN-r25716, Copyright (c) 2000-2010 the FFmpeg developers  built on Nov 10 2010 12:23:18 with gcc 4.1.2 20080704 (Red Hat 4.1.2-48)  configuration: --enable-libmp3lame --enable-shared --disable-mmx --arch=x86_64  libavutil     50.33. 0 / 50.33. 0  libavcore      0.12. 1 /  0.12. 1  libavcodec    52.94. 4 / 52.94. 4  libavformat   52.84. 0 / 52.84. 0  libavdevice   52. 2. 2 / 52. 2. 2  libavfilter    1.59. 0 /  1.59. 0  libswscale     0.12. 0 /  0.12. 0[mov,mp4,m4a,3gp,3g2,mj2 @ 0x15c4b4c0] multiple edit list entries, a/v desync might occur, patch welcomeSeems stream 0 codec frame rate differs from container frame rate: 600.00 (600/1) -> 15.00 (15/1)Input #0, mov,mp4,m4a,3gp,3g2,mj2, from '/RAID10/data/converted_video_files/11841.mov':  Duration: 00:00:06.66, start: 0.095000, bitrate: 8909 kb/s    Stream #0.0(eng): Video: svq3, yuvj420p, 548x367, 8905 kb/s, 15 fps, 15 tbr, 600 tbn, 600 tbc[buffer @ 0x15c532e0] w:548 h:367 pixfmt:yuvj420p[ffsink @ 0x15c53360] auto-inserting filter 'auto-inserted scaler 0' between the filter 'src' and the filter 'out'[scale @ 0x15c53000] w:548 h:367 fmt:yuvj420p -> w:548 h:367 fmt:yuv420p flags:0x4Output #0, flv, to '/RAID10/data/converted_video_files/11841.flv':  Metadata:    encoder         : Lavf52.84.0    Stream #0.0(eng): Video: flv, yuv420p, 548x367, q=2-31, 600 kb/s, 1k tbn, 24 tbcStream mapping:  Stream #0.0 -> #0.0Press [q] to stop encodingframe=   46 fps=  0 q=11.4 size=     321kB time=3.04 bitrate= 863.4kbits/s    frame=   90 fps= 84 q=11.8 size=     504kB time=5.96 bitrate= 692.5kbits/s    frame=  100 fps= 83 q=10.8 Lsize=     545kB time=6.62 bitrate= 673.9kbits/s    video:543kB audio:0kB global headers:0kB muxing overhead 0.325362%